# xmcd CD database file
#
# Track frame offsets:
#	150
#	12781
#	26088
#	44082
#	55181
#	69205
#	89191
#	105292
#	123942
#	142263
#	160913
#	179792
#	198834
#	214943
#	228609
#	244988
#	260854
#	278526
#	296304
#	311104
#
# Disc length: 4385 seconds
#
# Revision: 0
# Processed by: cddbd v1.5.2PL0 Copyright (c) Steve Scherf et al.
# Submitted via: CDex 1.51
#
DISCID=34111f14
DTITLE=Various New Country Artists - Country CD 01
DYEAR=1900
DGENRE=Country
TTITLE0=Patty Loveless - I Try To Think About Elvis
TTITLE1=Shania Twain - What Made You Say That
TTITLE2=Faith Hill - Take another little piece of m
TTITLE3=Patty Loveless - Shackles and chains
TTITLE4=Collin Raye - That's My Story
TTITLE5=Shania Twain - Whose Bed Have Your Boots Been
TTITLE6=Patty Loveless - Blame It on Your Heart
TTITLE7=Shania Twain - Any Man of Mine
TTITLE8=Julie Roberts - Break down here
TTITLE9=Faith Hill - Breathe
TTITLE10=Faith Hill and Tim McGraw - Lets make love
TTITLE11=The Judds - Grandpa (Tell Me 'bout The Goo
TTITLE12=Michelle Wright - I Surrender
TTITLE13=Patty Loveless - I'm That Kind Of Girl
TTITLE14=Patty Loveless - Lovin' all night
TTITLE15=Michelle Wright - One time around
TTITLE16=Toby Keith - Who's Your Daddy
TTITLE17=Andy Griggs - She thinks she needs me
TTITLE18=Michelle Wright - What love looks like
TTITLE19=LoneStar - Amazed
EXTD=
EXTT0=
EXTT1=
EXTT2=
EXTT3=
EXTT4=
EXTT5=
EXTT6=
EXTT7=
EXTT8=
EXTT9=
EXTT10=
EXTT11=
EXTT12=
EXTT13=
EXTT14=
EXTT15=
EXTT16=
EXTT17=
EXTT18=
EXTT19=
PLAYORDER=
